# Blender v2.91.2 OBJ File: ''
# www.blender.org
mtllib Rotorblatt.mtl
o Cube
v 0.762624 0.034670 1.900807
v 0.762624 -0.053660 1.900807
v 0.762624 0.034670 1.950523
v 0.762624 -0.053660 1.950523
v -0.770536 0.028340 1.900807
v -0.770536 -0.053660 1.900807
v -0.770536 0.028340 1.950709
v -0.770536 -0.053660 1.950709
v -0.391635 -0.085310 1.900807
v -0.391635 0.069485 1.992723
v -0.391635 -0.085310 1.992723
v -0.391635 0.069485 1.900807
v -0.018676 -0.069007 2.187900
v -0.041825 0.120125 1.900807
v -0.041825 -0.151775 1.900807
v -0.018676 0.037356 2.187900
v 0.011072 -0.069007 2.187900
v 0.034221 0.120125 1.900807
v 0.034221 -0.151775 1.900807
v 0.011072 0.037356 2.187900
v 0.317650 -0.078980 1.979536
v 0.317650 0.059990 1.900807
v 0.317650 -0.078980 1.900807
v 0.317650 0.059990 1.979536
v -0.152387 -0.063155 1.900807
v -0.152387 0.037835 2.011186
v -0.152387 -0.063155 2.011186
v -0.152387 0.037835 1.900807
v 0.158234 -0.063155 1.900807
v 0.158234 0.037835 2.008548
v 0.158234 -0.063155 2.008548
v 0.158234 0.037835 1.900807
vt 0.798954 0.500000
vt 0.875000 0.543454
vt 0.798954 0.750000
vt 0.375000 0.923954
vt 0.625000 1.000000
vt 0.375000 1.000000
vt 0.625000 0.206546
vt 0.375000 0.250000
vt 0.375000 0.206546
vt 0.307510 0.500000
vt 0.375000 0.750000
vt 0.307510 0.750000
vt 0.625000 0.500000
vt 0.375000 0.500000
vt 0.625000 0.432510
vt 0.375000 0.432510
vt 0.625000 0.250000
vt 0.375000 0.326046
vt 0.201046 0.500000
vt 0.125000 0.543454
vt 0.125000 0.500000
vt 0.625000 0.888510
vt 0.375000 0.888510
vt 0.763510 0.500000
vt 0.763510 0.750000
vt 0.755228 0.500000
vt 0.745722 0.750000
vt 0.745722 0.500000
vt 0.375000 0.870722
vt 0.625000 0.880228
vt 0.375000 0.880228
vt 0.375000 0.361490
vt 0.625000 0.369772
vt 0.375000 0.369772
vt 0.244772 0.500000
vt 0.236490 0.750000
vt 0.236490 0.500000
vt 0.375000 0.862738
vt 0.625000 0.870722
vt 0.737738 0.750000
vt 0.737738 0.500000
vt 0.375000 0.379278
vt 0.254278 0.500000
vt 0.244772 0.750000
vt 0.692491 0.500000
vt 0.625000 0.750000
vt 0.625000 0.817491
vt 0.375000 0.817491
vt 0.625000 0.387262
vt 0.375000 0.387262
vt 0.262262 0.500000
vt 0.262262 0.750000
vt 0.201046 0.750000
vt 0.625000 0.361490
vt 0.755228 0.750000
vt 0.254278 0.750000
vt 0.625000 0.379278
vt 0.692490 0.750000
vt 0.625000 0.862738
vt 0.875000 0.500000
vt 0.625000 0.923954
vt 0.625000 0.326046
vn -0.1080 0.9942 0.0000
vn -0.1102 0.0000 0.9939
vn -1.0000 0.0000 0.0000
vn 0.0568 -0.9984 0.0000
vn 1.0000 0.0000 0.0000
vn 0.0000 0.0000 -1.0000
vn -0.0832 -0.9965 0.0000
vn -0.0769 0.0000 0.9970
vn 0.1311 0.9914 -0.0000
vn 0.0000 0.9609 0.2770
vn 0.0000 0.0000 1.0000
vn -0.6254 -0.7803 -0.0000
vn 0.7731 -0.0000 0.6343
vn 0.5529 0.8332 -0.0000
vn 0.0000 -0.9609 0.2770
vn 0.0568 0.9984 0.0000
vn 0.0651 0.0000 0.9979
vn -0.0988 -0.9951 0.0000
vn 0.0922 -0.9957 0.0000
vn -0.3731 0.8831 0.2847
vn -0.7974 0.0000 0.6034
vn 0.3815 -0.8796 0.2843
vn -0.1377 0.9905 0.0000
vn 0.1791 -0.0000 0.9838
vn -0.4118 -0.8662 0.2829
vn 0.3451 0.8940 0.2856
vn -0.5971 0.8022 0.0000
vn 0.5814 -0.8136 0.0000
usemtl Material
s off
f 12/1/1 7/2/1 10/3/1
f 11/4/2 7/5/2 8/6/2
f 7/7/3 6/8/3 8/9/3
f 23/10/4 4/11/4 21/12/4
f 1/13/5 4/11/5 2/14/5
f 22/15/6 2/14/6 23/16/6
f 5/17/6 9/18/6 6/8/6
f 9/19/7 8/20/7 6/21/7
f 26/22/8 11/4/8 27/23/8
f 28/24/9 10/3/9 26/25/9
f 14/26/10 20/27/10 18/28/10
f 17/29/11 16/30/11 13/31/11
f 25/32/6 14/33/6 15/34/6
f 15/35/12 27/36/12 25/37/12
f 31/38/13 20/39/13 17/29/13
f 18/28/14 30/40/14 32/41/14
f 14/33/6 19/42/6 15/34/6
f 19/43/15 13/44/15 15/35/15
f 22/45/16 3/46/16 1/13/16
f 4/11/17 24/47/17 21/48/17
f 32/49/6 23/16/6 29/50/6
f 29/51/18 21/12/18 31/52/18
f 25/37/19 11/53/19 9/19/19
f 9/18/6 28/54/6 25/32/6
f 14/26/20 26/25/20 16/55/20
f 16/30/21 27/23/21 13/31/21
f 19/43/22 31/52/22 17/56/22
f 18/57/6 29/50/6 19/42/6
f 32/41/23 24/58/23 22/45/23
f 21/48/24 30/59/24 31/38/24
f 12/1/1 5/60/1 7/2/1
f 11/4/2 10/61/2 7/5/2
f 7/7/3 5/17/3 6/8/3
f 23/10/4 2/14/4 4/11/4
f 1/13/5 3/46/5 4/11/5
f 22/15/6 1/13/6 2/14/6
f 5/17/6 12/62/6 9/18/6
f 9/19/7 11/53/7 8/20/7
f 26/22/8 10/61/8 11/4/8
f 28/24/9 12/1/9 10/3/9
f 14/26/10 16/55/10 20/27/10
f 17/29/11 20/39/11 16/30/11
f 25/32/6 28/54/6 14/33/6
f 15/35/25 13/44/25 27/36/25
f 31/38/13 30/59/13 20/39/13
f 18/28/26 20/27/26 30/40/26
f 14/33/6 18/57/6 19/42/6
f 19/43/15 17/56/15 13/44/15
f 22/45/16 24/58/16 3/46/16
f 4/11/17 3/46/17 24/47/17
f 32/49/6 22/15/6 23/16/6
f 29/51/18 23/10/18 21/12/18
f 25/37/19 27/36/19 11/53/19
f 9/18/6 12/62/6 28/54/6
f 14/26/27 28/24/27 26/25/27
f 16/30/21 26/22/21 27/23/21
f 19/43/28 29/51/28 31/52/28
f 18/57/6 32/49/6 29/50/6
f 32/41/23 30/40/23 24/58/23
f 21/48/24 24/47/24 30/59/24
